<svg version="1.1" xmlns="http://www.w3.org/2000/svg" xmlns:xlink="http://www.w3.org/1999/xlink" x="0px" y="0px" viewBox="0 0 56 56" style="enable-background:new 0 0 56 56;" xml:space="preserve" width="56"  height="56" >
<style type="text/css">
	.st0{display:none;}
	.st1{display:inline;}
	.st2{fill-rule:evenodd;clip-rule:evenodd;fill:none;}
	.st3{fill:none;stroke:#4D525B;stroke-width:0.7467;stroke-miterlimit:3.7333;}
	.st4{fill-rule:evenodd;clip-rule:evenodd;fill:#73D3FF;stroke:#4D525B;stroke-width:0.7467;stroke-miterlimit:3.7333;}
	.st5{fill-rule:evenodd;clip-rule:evenodd;fill:none;stroke:#4D525B;stroke-width:0.7467;stroke-miterlimit:3.7333;}
	.st6{fill-rule:evenodd;clip-rule:evenodd;fill:none;stroke:#73D3FF;stroke-width:0.7467;stroke-miterlimit:3.7333;}
</style>
<g id="Layer_1" class="st0">
	<path class="st1" d="M12.1,18.3c0.3,0,0.5-0.1,0.7-0.3c0.4-0.4,0.4-1.1,0-1.5c-1.8-1.8-2.7-4.1-2.7-6.6c0-2.5,1-4.8,2.7-6.6
		c0.4-0.4,0.4-1.1,0-1.5s-1.1-0.4-1.5,0C9.2,4.1,8,6.9,8,10c0,3,1.2,5.9,3.3,8.1C11.6,18.2,11.9,18.3,12.1,18.3z"></path>
	<path class="st1" d="M16.6,16.3c0.3,0,0.5-0.1,0.7-0.3c0.4-0.4,0.4-1.1,0-1.5c-1.2-1.2-1.9-2.9-1.9-4.6c0-1.7,0.7-3.4,1.9-4.6
		c0.4-0.4,0.4-1.1,0-1.5c-0.4-0.4-1.1-0.4-1.5,0c-3.3,3.3-3.3,8.8,0,12.1C16.1,16.2,16.4,16.3,16.6,16.3z"></path>
	<path class="st1" d="M21.2,14.4c0.3,0,0.5-0.1,0.7-0.3c0.4-0.4,0.4-1.1,0-1.5c-1.4-1.4-1.4-3.8,0-5.2c0.4-0.4,0.4-1.1,0-1.5
		c-0.4-0.4-1.1-0.4-1.5,0c-2.2,2.2-2.2,5.9,0,8.1C20.7,14.3,20.9,14.4,21.2,14.4z"></path>
	<path class="st1" d="M29.2,14c1.6-0.6,2.8-2.1,2.8-4c0-2.3-1.9-4.2-4.2-4.2c-2.3,0-4.2,1.9-4.2,4.2c0,1.8,1.2,3.4,2.8,4L10.8,52.8
		c-0.2,0.5,0,1.1,0.6,1.3c0.5,0.2,1.1,0,1.3-0.6l2.7-6.7h10.9c0.6,0,1-0.5,1-1c0-0.6-0.5-1-1-1h-7.1l16.7-8.6l3.5,8.6h-4.8
		c-0.6,0-1,0.5-1,1c0,0.6,0.5,1,1,1h5.6l2.7,6.7c0.2,0.4,0.5,0.6,1,0.6c0.1,0,0.3,0,0.4-0.1c0.5-0.2,0.8-0.8,0.6-1.3L29.2,14z
		 M24.3,24.7c0.1,0,0.2,0,0.2,0h3.9L21.8,31L24.3,24.7z M25.1,22.7l2.7-6.7l2.7,6.7H25.1z M25.6,10c0-1.2,1-2.2,2.2-2.2
		c1.2,0,2.2,1,2.2,2.2s-1,2.2-2.2,2.2C26.6,12.1,25.6,11.2,25.6,10z M16.6,43.9l3.2-8.1h12.4L16.6,43.9z M21.8,33.8l9.6-8.9l3.6,8.9
		H21.8z"></path>
	<path class="st1" d="M42.7,18c0.2,0.2,0.5,0.3,0.7,0.3s0.5-0.1,0.7-0.3c2.2-2.2,3.3-5,3.3-8.1c0-3-1.2-5.9-3.3-8.1
		c-0.4-0.4-1.1-0.4-1.5,0c-0.4,0.4-0.4,1.1,0,1.5c1.8,1.8,2.7,4.1,2.7,6.6s-1,4.8-2.7,6.6C42.3,17,42.3,17.6,42.7,18z"></path>
	<path class="st1" d="M38.2,16c0.2,0.2,0.5,0.3,0.7,0.3c0.3,0,0.5-0.1,0.7-0.3c3.3-3.3,3.3-8.8,0-12.1c-0.4-0.4-1.1-0.4-1.5,0
		c-0.4,0.4-0.4,1.1,0,1.5c1.2,1.2,1.9,2.9,1.9,4.6s-0.7,3.4-1.9,4.6C37.8,15,37.8,15.6,38.2,16z"></path>
	<path class="st1" d="M33.6,14.1c0.2,0.2,0.5,0.3,0.7,0.3c0.3,0,0.5-0.1,0.7-0.3c2.2-2.2,2.2-5.9,0-8.1c-0.4-0.4-1.1-0.4-1.5,0
		c-0.4,0.4-0.4,1.1,0,1.5c1.4,1.4,1.4,3.8,0,5.2C33.2,13,33.2,13.7,33.6,14.1z"></path>
	<path class="st1" d="M31.4,45.5c-0.2-0.4-0.6-0.7-1-0.6c-0.4,0-0.8,0.3-0.9,0.7c-0.1,0.4,0,0.9,0.4,1.1c0.3,0.2,0.8,0.3,1.2,0
		C31.4,46.5,31.6,46,31.4,45.5z"></path>
</g>
<g id="Layer_2">
	<g>
		<rect x="0" y="0" class="st2" width="56" height="56" fill="none"></rect>
		<polyline class="st3" points="15.9,53.2 27.7,23.4 39.4,53.1 		" stroke="#4D525B" fill="none" stroke-width="0.7467px"></polyline>
		<polyline class="st3" points="24.7,31 30.2,31 21.8,39.2 33.9,39.2 18.2,47.5 37.2,47.5 		" stroke="#4D525B" fill="none" stroke-width="0.7467px"></polyline>
		<ellipse class="st4" cx="27.9" cy="20.3" rx="3.6" ry="3.6" stroke="#4D525B" fill="#73D3FF" stroke-width="0.7467px"></ellipse>
		<path class="st5" d="M22.2,26.6c-1.8-1.3-3-3.6-3-6.2c0-2.6,1.2-4.9,3-6.2" stroke="#4D525B" fill="none" stroke-width="0.7467px"></path>
		<path class="st6" d="M18.2,29.7c-2.7-2-4.5-5.4-4.5-9.4c0-3.9,1.8-7.4,4.5-9.4" stroke="#73D3FF" fill="none" stroke-width="0.7467px"></path>
		<path class="st5" d="M14.7,33.2c-3.7-2.7-6.2-7.4-6.2-12.9c0-5.4,2.5-10.2,6.2-12.9" stroke="#4D525B" fill="none" stroke-width="0.7467px"></path>
		<path class="st6" d="M11.4,37c-4.9-3.5-8.1-9.7-8.1-16.7c0-7,3.2-13.2,8.1-16.7" stroke="#73D3FF" fill="none" stroke-width="0.7467px"></path>
		<path class="st5" d="M33.7,26.6c1.8-1.3,3-3.6,3-6.2c0-2.6-1.2-4.9-3-6.2" stroke="#4D525B" fill="none" stroke-width="0.7467px"></path>
		<path class="st6" d="M37.7,29.7c2.7-2,4.5-5.4,4.5-9.4c0-3.9-1.8-7.4-4.5-9.4" stroke="#73D3FF" fill="none" stroke-width="0.7467px"></path>
		<path class="st5" d="M41.3,33.2c3.7-2.7,6.2-7.4,6.2-12.9c0-5.4-2.5-10.2-6.2-12.9" stroke="#4D525B" fill="none" stroke-width="0.7467px"></path>
		<path class="st6" d="M44.6,37c4.9-3.5,8.1-9.7,8.1-16.7c0-7-3.2-13.2-8.1-16.7" stroke="#73D3FF" fill="none" stroke-width="0.7467px"></path>
	</g>
</g>
</svg>