<svg xmlns:xlink="http://www.w3.org/1999/xlink" viewBox="1 1 60 60" width="56" height="56" xmlns="http://www.w3.org/2000/svg" class="flicon-truck"><g fill="none" fill-rule="evenodd" stroke="#4D525B" stroke-width="1.4px"><path d="M41.8 19.042v15.305M41.8 19.042v15.305M58.93 34.962l.102 3.95M45.6 21.269v5.613M49.608 38.98h9.408M41.996 34.353H58.62M58.8 34.347L52.617 18.97" stroke="#4D525B" stroke-width="0.8px" stroke-linecap="square" fill="none"></path><path d="M21.961 13.403V31.93M30.761 13.403V31.93M13.321 13.403V31.93" stroke="#73D3FF" stroke-width="0.8px" stroke-linecap="square" fill="none"></path><path stroke="#4D525B" stroke-width="0.8px" d="M4.4 13.4h35.2v18.533H4.4z" fill="none"></path><g stroke="#4D525B" stroke-linecap="square" stroke-width="0.8px" fill="none"><path d="M52.4 18.84H41.8M53.2 21.257H46M55.6 26.896H46M4.4 34.347h36.8" stroke="#4D525B" fill="none" stroke-width="0.8px"></path></g><ellipse stroke="#4D525B" stroke-width="0.8px" fill="#73D3FF" cx="8.4" cy="39.181" rx="2.8" ry="2.819"></ellipse><ellipse stroke="#4D525B" stroke-width="0.8px" fill="#73D3FF" cx="30" cy="39.181" rx="2.8" ry="2.819"></ellipse><ellipse stroke="#4D525B" stroke-width="0.8px" fill="#73D3FF" cx="44.4" cy="39.181" rx="2.8" ry="2.819"></ellipse><path d="M5.5 47.5h43M36.5 51.25h12" stroke="#4D525B" stroke-linecap="square" fill="none" stroke-width="1.4px"></path><path d="M0 0h64v64H0z" stroke="#4D525B" fill="none" stroke-width="1.4px"></path></g></svg>