<svg version="1.1" id="Layer_1" xmlns="http://www.w3.org/2000/svg" xmlns:xlink="http://www.w3.org/1999/xlink" x="0px" y="0px" viewBox="0 0 24 24" enable-background="new 0 0 24 24" xml:space="preserve" class="flicon-mobile-phone" width="56"  height="56" >
<g stroke="#4D525B" fill-opacity="0" fill="#000000" stroke-width="1.4px">
    <path fill="none" d="M19.4,21.1c0,1.1-0.8,1.9-1.9,1.9H7.1c-1.1,0-1.9-0.8-1.9-1.9v-18C5.2,2,6,1.2,7.1,1.2h10.4
        c1.1,0,1.9,0.8,1.9,1.9L19.4,21.1L19.4,21.1z" stroke="#4D525B" stroke-width="1.4px" fill-opacity="0"></path>
    <line fill="none" x1="19.4" y1="5" x2="5.2" y2="5" stroke="#4D525B" stroke-width="1.4px" fill-opacity="0"></line>
    <line fill="none" x1="19.4" y1="19.2" x2="5.2" y2="19.2" stroke="#4D525B" stroke-width="1.4px" fill-opacity="0"></line>
    <g stroke="#4D525B" stroke-width="1.4px" fill-opacity="0">
        <path fill="none" d="M12.3,20.2c-0.5,0-0.9,0.5-0.9,0.9c0,0.5,0.5,0.9,0.9,0.9c0.5,0,0.9-0.5,0.9-0.9
            C13.2,20.5,12.8,20.2,12.3,20.2L12.3,20.2z" stroke="#4D525B" stroke-width="1.4px" fill-opacity="0"></path>
    </g>
    <line fill="none" x1="9.9" y1="3.1" x2="14.6" y2="3.1" stroke="#4D525B" stroke-width="1.4px" fill-opacity="0"></line>
</g>
<circle fill="#73D3FF" cx="12.4" cy="11.2" class="flicon-colored-element" r="3.3" stroke="#73D3FF" stroke-width="1.4px"></circle>
</svg>