<svg version="1.1" id="Layer_1" xmlns="http://www.w3.org/2000/svg" xmlns:xlink="http://www.w3.org/1999/xlink" x="0px" y="0px" viewBox="0 0 24 24" enable-background="new 0 0 24 24" xml:space="preserve" class="flicon-stationery" width="56"  height="56" >
<g stroke="#4D525B" fill-opacity="0" fill="#000000" stroke-width="1.4px">
    <g stroke="#4D525B" stroke-width="1.4px" fill-opacity="0">
        <path fill="none" d="M16.6,12.4h0.9c1.5,0,2.7,1.2,2.7,2.7s-1.2,2.7-2.7,2.7h-0.9" stroke="#4D525B" stroke-width="1.4px" fill-opacity="0"></path>
        <path fill="none" d="M16.6,20.8c0,1.1-0.8,1.9-1.9,1.9H6.5c-1.1,0-1.9-0.8-1.9-1.9V10.6h12V20.8z" stroke="#4D525B" stroke-width="1.4px" fill-opacity="0"></path>
        <path fill="none" d="M16.6,1.5c1,1.4-0.4,2.2-0.8,3c-0.4,0.8,0,1.6,0.8,1.9C19.3,7.6,20.1,2.3,16.6,1.5z" stroke="#4D525B" stroke-width="1.4px" fill-opacity="0"></path>
        <line fill="none" x1="13.9" y1="10.6" x2="16.3" y2="6.3" stroke="#4D525B" stroke-width="1.4px" fill-opacity="0"></line>
        <line fill="none" x1="17.3" y1="6.6" x2="15.8" y2="10.6" stroke="#4D525B" stroke-width="1.4px" fill-opacity="0"></line>
        <polygon fill="none" points="8.3,10.6 5.6,10.6 4.2,7.8 3.7,5.1 6,6.4        " stroke="#4D525B" stroke-width="1.4px" fill-opacity="0"></polygon>
        <line fill="none" x1="4.2" y1="7.8" x2="6" y2="6.4" stroke="#4D525B" stroke-width="1.4px" fill-opacity="0"></line>
        <rect x="9.3" y="1.4" fill="none" width="3.7" height="9.2" stroke="#4D525B" stroke-width="1.4px" fill-opacity="0"></rect>
        <line fill="none" x1="12.9" y1="3.2" x2="11.2" y2="3.2" stroke="#4D525B" stroke-width="1.4px" fill-opacity="0"></line>
        <line fill="none" x1="12.9" y1="5.1" x2="12" y2="5.1" stroke="#4D525B" stroke-width="1.4px" fill-opacity="0"></line>
        <line fill="none" x1="12.9" y1="7" x2="11.2" y2="7" stroke="#4D525B" stroke-width="1.4px" fill-opacity="0"></line>
        <line fill="none" x1="12.9" y1="8.7" x2="12" y2="8.7" stroke="#4D525B" stroke-width="1.4px" fill-opacity="0"></line>
    </g>
    <circle class="flicon-colored-element" fill="#73D3FF" cx="11" cy="16.7" r="2.9" stroke="#73D3FF" stroke-width="1.4px" fill-opacity="0"></circle>
</g>
</svg>