<svg version="1.1" id="Layer_1" xmlns="http://www.w3.org/2000/svg" xmlns:xlink="http://www.w3.org/1999/xlink" x="0px" y="0px" viewBox="0 0 24 24" enable-background="new 0 0 24 24" xml:space="preserve" class="flicon-paintbrush" width="56"  height="56" >
    <g stroke="#4D525B" fill-opacity="0" fill="#000000" stroke-width="1.4px">
        <circle fill="none" stroke="#231F20" stroke-width="2px" stroke-linecap="round" stroke-linejoin="round" stroke-miterlimit="10" cx="1402" cy="762" r="6" fill-opacity="0"></circle>
        <polyline fill="none" stroke="#231F20" stroke-width="2px" stroke-linecap="round" stroke-linejoin="round" stroke-miterlimit="10" points="
            1404,756 1404,722 1398,722     " fill-opacity="0"></polyline>
        <polyline fill="none" stroke="#231F20" stroke-width="2px" stroke-linecap="round" stroke-linejoin="round" stroke-miterlimit="10" points="
            1407.6,764 1426,764 1430.2,768     " fill-opacity="0"></polyline>
        <rect x="1408" y="742" fill="none" stroke="#231F20" stroke-width="2px" stroke-linecap="round" stroke-linejoin="round" stroke-miterlimit="10" width="20" height="18" fill-opacity="0"></rect>
        <rect x="1408" y="732" fill="none" stroke="#231F20" stroke-width="2px" stroke-linecap="round" stroke-linejoin="round" stroke-miterlimit="10" width="14" height="10" fill-opacity="0"></rect>
        <line fill="none" stroke="#231F20" stroke-width="2px" stroke-linecap="round" stroke-linejoin="round" stroke-miterlimit="10" x1="1424" y1="756" x2="1420" y2="756" fill-opacity="0"></line>
        <line fill="none" stroke="#231F20" stroke-width="2px" stroke-linecap="round" stroke-linejoin="round" stroke-miterlimit="10" x1="1414" y1="738" x2="1412" y2="738" fill-opacity="0"></line>
    </g>
    <g stroke="#4D525B" fill-opacity="0" fill="#000000" stroke-width="1.4px">
        <path fill="none" d="M15.1,10.4c-0.3,0-0.7-0.2-0.9-0.5C14,9.7,14,9.3,14.1,9c0.3-0.8,0.5-1.6,
            0.5-2.4V2.6C14.6,1.2,13.4,0,12,0 S9.4,1.2,9.4,2.6v3.9c0,0.8,0.2,1.7,0.5,2.4C10,9.3,
            10,9.7,9.8,10c-0.2,0.3-0.5,0.5-0.9,0.5H3.7c-0.9,0-1.6,0.7-1.6,
            1.6v3.7h19.8 V12c0-0.9-0.7-1.6-1.6-1.6H15.1z" stroke="#4D525B" stroke-width="1.4px" fill-opacity="0"></path>
        <polygon fill="#73D3FF" points="20.9,24 7.8,24 7.8,19.8 5.7,24 3.1,24 3.1,15.7 20.9,15.7" class="flicon-colored-element" stroke="#73D3FF" stroke-width="1.4px" fill-opacity="0"></polygon>
        <polygon fill="none" points="20.9,24 7.8,24 7.8,19.8 5.7,24 3.1,24 3.1,15.7 20.9,15.7" stroke="#4D525B" stroke-width="1.4px" fill-opacity="0"></polygon>

        <line fill="none" x1="18.8" y1="18.8" x2="18.8" y2="24" stroke="#4D525B" stroke-width="1.4px" fill-opacity="0"></line>
        <line fill="none" x1="16.7" y1="19.8" x2="16.7" y2="24" stroke="#4D525B" stroke-width="1.4px" fill-opacity="0"></line>
        <line fill="none" x1="14.6" y1="21.4" x2="14.6" y2="24" stroke="#4D525B" stroke-width="1.4px" fill-opacity="0"></line>
        <circle fill="none" cx="12" cy="2.6" r="0.5" stroke="#4D525B" stroke-width="1.4px" fill-opacity="0"></circle>
    </g>
</svg>