<svg version="1.1" id="Layer_1" xmlns="http://www.w3.org/2000/svg" xmlns:xlink="http://www.w3.org/1999/xlink" x="0px" y="0px" viewBox="0 0 24 24" enable-background="new 0 0 24 24" xml:space="preserve" class="flicon-keyboard" width="56"  height="56" >
    <path fill="none" d="M24,15.7c0-1.1-0.9-2.1-2.1-2.1H2.1c-1.1,0-2.1,0.9-2.1,
    2.1v6.3C0,23.1,0.9,24,2.1,24h19.8 c1.1,0,2.1-0.9,2.1-2.1V15.7z" stroke="#4D525B" stroke-width="1.4px"></path>
    <path fill="none" d="M3.1,13.6v-1c0-1.7,1.4-3.1,3.1-3.1h14.1c2,0,3.7-1.6,
    3.7-3.7c0-2-1.6-3.7-3.7-3.7h-6.8c-0.9,0-1.6-0.7-1.6-1.6 V0" stroke="#4D525B" stroke-width="1.4px"></path>
    <line class="flicon-colored-element" fill="#73D3FF" x1="4.7" y1="21.5" x2="19.3" y2="21.5" stroke="#73D3FF" stroke-width="1.4px"></line>
    <line class="flicon-colored-element" fill="#73D3FF" x1="3" y1="16" x2="5" y2="16" stroke="#73D3FF" stroke-width="1.4px"></line>
    <line class="flicon-colored-element" fill="#73D3FF" x1="6" y1="16" x2="8" y2="16" stroke="#73D3FF" stroke-width="1.4px"></line>
    <line class="flicon-colored-element" fill="#73D3FF" x1="9" y1="16" x2="11" y2="16" stroke="#73D3FF" stroke-width="1.4px"></line>
    <line class="flicon-colored-element" fill="#73D3FF" x1="12" y1="16" x2="14" y2="16" stroke="#73D3FF" stroke-width="1.4px"></line>
    <line class="flicon-colored-element" fill="#73D3FF" x1="15" y1="16" x2="17" y2="16" stroke="#73D3FF" stroke-width="1.4px"></line>
    <line class="flicon-colored-element" fill="#73D3FF" x1="18" y1="16" x2="20" y2="16" stroke="#73D3FF" stroke-width="1.4px"></line>
    <line class="flicon-colored-element" fill="#73D3FF" x1="3" y1="19" x2="5" y2="19" stroke="#73D3FF" stroke-width="1.4px"></line>
    <line class="flicon-colored-element" fill="#73D3FF" x1="6" y1="19" x2="8" y2="19" stroke="#73D3FF" stroke-width="1.4px"></line>
    <line class="flicon-colored-element" fill="#73D3FF" x1="9" y1="19" x2="11" y2="19" stroke="#73D3FF" stroke-width="1.4px"></line>
    <line class="flicon-colored-element" fill="#73D3FF" x1="12" y1="19" x2="14" y2="19" stroke="#73D3FF" stroke-width="1.4px"></line>
    <line class="flicon-colored-element" fill="#73D3FF" x1="15" y1="19" x2="17" y2="19" stroke="#73D3FF" stroke-width="1.4px"></line>
    <line class="flicon-colored-element" fill="#73D3FF" x1="18" y1="19" x2="20" y2="19" stroke="#73D3FF" stroke-width="1.4px"></line>
</svg>